<svg version="1.1" id="Layer_1" xmlns="http://www.w3.org/2000/svg" xmlns:xlink="http://www.w3.org/1999/xlink" x="0px" y="0px"
	 width="100%" viewBox="0 0 449 214" enable-background="new 0 0 449 214" xml:space="preserve">
<path fill="#FEFEFE" opacity="1.000000" stroke="none" 
	d="
M272.000000,215.000000 
	C181.333359,215.000000 91.166733,215.000000 1.000073,215.000000 
	C1.000048,143.666718 1.000048,72.333450 1.000024,1.000130 
	C150.666550,1.000087 300.333099,1.000087 449.999756,1.000043 
	C449.999817,72.333199 449.999817,143.666397 449.999908,214.999786 
	C390.833344,215.000000 331.666656,215.000000 272.000000,215.000000 
M56.061264,149.382828 
	C56.074001,150.088303 56.086739,150.793762 55.940067,152.483292 
	C55.940067,156.763077 55.940067,161.042862 55.940067,165.549500 
	C64.496826,165.549500 72.561829,165.549500 81.132896,165.549500 
	C81.132896,151.532928 81.132896,137.788223 81.132896,123.373146 
	C83.581711,123.373146 85.528999,123.379593 87.476234,123.372139 
	C106.629578,123.298813 125.794876,123.604660 144.931747,123.004684 
	C156.353241,122.646591 165.210526,116.746208 170.657990,106.580536 
	C183.356293,82.883759 167.537262,56.240585 140.583405,56.044857 
	C113.432465,55.847698 86.278954,55.999607 59.126572,56.013309 
	C58.172474,56.013794 57.218460,56.172089 55.859978,56.292751 
	C55.859978,60.341873 55.850468,64.136757 55.861504,67.931580 
	C55.939957,94.911980 56.022610,121.892357 56.061264,149.382828 
M285.230103,162.193741 
	C285.230103,163.941757 285.230103,165.689774 285.230103,167.561676 
	C294.225586,167.561676 302.484924,167.561676 311.371490,167.561676 
	C311.371490,165.520477 311.371490,163.743210 311.371490,161.965958 
	C311.371613,138.472717 311.355957,114.979446 311.382874,91.486229 
	C311.389679,85.547905 313.599030,81.637054 318.059662,81.289558 
	C324.431854,80.793144 330.871552,81.163177 337.834534,81.163177 
	C337.834534,110.290405 337.834534,138.846542 337.834534,167.514938 
	C346.808533,167.514938 355.210999,167.514938 364.050354,167.514938 
	C364.050354,138.621719 364.050354,110.040993 364.050354,81.300919 
	C372.879242,81.300919 381.264709,81.300919 390.092529,81.300919 
	C390.092529,110.177986 390.092529,138.755875 390.092529,167.556000 
	C398.612335,167.556000 406.685608,167.556000 414.985901,167.556000 
	C414.985901,129.932816 414.985901,92.585663 414.985901,55.244511 
	C414.136749,55.076794 413.659882,54.900356 413.182953,54.900146 
	C381.525604,54.886303 349.863647,54.612896 318.215118,55.140583 
	C312.580750,55.234524 306.964539,58.556816 301.412781,60.587524 
	C298.541656,61.637718 297.841431,64.009453 297.938599,67.017082 
	C298.145721,73.428551 298.001892,79.851349 298.001892,86.833939 
	C293.389496,86.833939 289.484558,86.833939 285.168793,86.833939 
	C285.168793,90.204475 285.359985,93.023956 285.127472,95.808060 
	C284.695129,100.984505 285.548859,105.386002 289.708923,109.187271 
	C292.058533,111.334221 293.727295,114.551659 294.911194,117.594856 
	C301.381531,134.226669 298.107422,148.883194 285.230103,162.193741 
M186.500137,141.999695 
	C179.729187,141.999695 172.958252,141.999695 166.227036,141.999695 
	C166.227036,150.696762 166.227036,158.758926 166.227036,166.919800 
	C199.209686,166.919800 231.851288,167.432251 264.465454,166.708481 
	C281.340576,166.333984 294.006989,153.042114 295.068665,137.254257 
	C296.359344,118.061295 286.485382,104.111862 268.771515,100.475502 
	C265.221924,99.746834 261.489685,99.712013 257.840363,99.697990 
	C239.014008,99.625648 220.185425,99.794350 201.362396,99.534279 
	C198.272400,99.491585 194.659668,98.442627 192.262177,96.595200 
	C188.998169,94.080093 188.695007,89.904564 190.360046,86.081085 
	C192.078217,82.135559 195.358154,80.719963 199.651337,80.741737 
	C229.637177,80.893883 259.623627,80.928474 289.609894,80.999802 
	C291.370209,81.003983 293.130524,81.000343 294.732056,81.000343 
	C294.732056,72.221947 294.732056,64.155586 294.732056,56.014420 
	C261.863342,56.014420 229.386230,55.828800 196.914032,56.147377 
	C188.982147,56.225201 181.689651,59.343746 175.719269,65.443825 
	C185.814941,81.573311 185.612183,97.757645 175.680374,113.594833 
	C181.657776,119.621849 189.318268,122.958611 197.432938,123.106735 
	C205.092896,123.246582 212.754959,123.306931 220.416306,123.326149 
	C233.911423,123.360008 247.406723,123.355064 260.901855,123.324539 
	C265.004303,123.315269 268.518524,124.407646 270.543610,128.278763 
	C274.125458,135.125656 269.582672,142.190704 261.461456,142.190186 
	C236.807663,142.188644 212.153885,142.071701 186.500137,141.999695 
M66.432205,26.485960 
	C68.175682,18.737961 64.269173,13.066072 57.479218,13.649234 
	C53.003853,14.033607 50.061398,16.611551 49.191719,20.944715 
	C48.321457,25.280790 50.053459,28.770376 54.044727,30.845936 
	C58.300247,33.058907 62.272598,31.788404 66.432205,26.485960 
M36.541180,36.268974 
	C33.738922,42.067852 35.029343,46.949463 39.849522,48.784313 
	C44.352703,50.498497 49.806923,48.199348 50.408497,43.507217 
	C50.750908,40.836491 49.616291,37.120934 47.766781,35.215157 
	C44.597980,31.949959 40.513786,32.643856 36.541180,36.268974 
M227.368820,194.652390 
	C227.518417,197.801102 227.667999,200.949829 227.817596,204.098541 
	C228.614670,204.068451 229.411743,204.038345 230.208817,204.008255 
	C230.208817,200.829269 229.858948,197.592621 230.369125,194.497772 
	C230.595047,193.127319 232.561401,192.043777 233.737671,190.829987 
	C234.524445,192.085907 235.784592,193.267929 235.994690,194.613861 
	C236.374985,197.050003 236.004837,199.594559 236.216370,202.070908 
	C236.283997,202.862625 237.199722,203.581909 237.727417,204.334335 
	C238.163177,204.201416 238.598938,204.068497 239.034698,203.935593 
	C239.034698,201.022675 238.663010,198.041672 239.179352,195.223358 
	C239.471390,193.629333 241.222412,192.302643 242.316284,190.855530 
	C243.196411,192.210693 244.645630,193.490280 244.837799,194.936829 
	C245.233231,197.913849 244.956696,200.980118 244.956696,204.728119 
	C249.178177,201.264465 248.602036,190.023911 245.017365,188.394333 
	C244.038635,187.949402 242.567963,187.714966 241.662247,188.127884 
	C237.083527,190.215347 232.475571,187.282837 227.369278,188.974884 
	C227.369278,190.190750 227.369278,191.967148 227.368820,194.652390 
M24.881144,62.647896 
	C25.600996,68.405113 28.754206,71.194397 33.545914,70.312614 
	C37.911579,69.509239 40.939453,64.958771 38.907539,60.948177 
	C37.783054,58.728657 34.827869,56.602749 32.355312,56.091496 
	C28.444099,55.282772 25.917112,57.954449 24.881144,62.647896 
M32.187752,113.048515 
	C36.390854,112.165230 39.000652,109.405045 38.125473,105.331772 
	C37.603642,102.903030 35.238224,100.077209 32.958748,98.996071 
	C29.061073,97.147430 24.690020,100.126854 23.950634,104.232033 
	C23.061245,109.170074 25.632589,112.244926 32.187752,113.048515 
M34.122623,83.724174 
	C32.555298,78.735901 29.638662,76.506851 25.641344,77.472923 
	C21.525234,78.467697 19.367311,81.149765 19.813717,85.450340 
	C20.231562,89.475792 22.654266,91.730415 26.690660,91.975662 
	C30.954737,92.234726 33.428043,89.677162 34.122623,83.724174 
M44.040470,128.477707 
	C44.239262,125.724350 45.274155,122.632454 44.344337,120.336082 
	C43.719379,118.792618 40.160324,117.412209 38.196030,117.725761 
	C36.251240,118.036201 33.729706,120.292488 33.175560,122.194710 
	C32.619827,124.102371 33.560699,127.171410 34.953785,128.759201 
	C37.314354,131.449707 40.576431,131.023956 44.040470,128.477707 
M195.722519,203.789459 
	C196.485870,203.306839 197.822891,202.908020 197.907898,202.326279 
	C198.193665,200.370499 198.280304,198.311859 197.982422,196.362976 
	C197.597153,193.842377 197.444824,190.764160 195.913589,189.108612 
	C194.723969,187.822403 191.576309,188.347183 189.234192,188.059082 
	C189.044006,185.850586 188.830429,183.370346 188.558823,180.216293 
	C185.148926,183.957596 185.327240,201.683075 189.070755,204.771881 
	C189.070755,200.801483 188.721970,197.549423 189.233276,194.438736 
	C189.454224,193.094528 191.451889,192.042358 192.642441,190.857513 
	C193.460159,192.087112 194.797073,193.241699 194.987808,194.561874 
	C195.388672,197.336533 195.187714,200.198151 195.722519,203.789459 
M403.835480,196.463226 
	C404.247070,203.361542 404.247070,203.361542 415.642303,203.398499 
	C415.642303,195.938095 415.642303,188.484100 415.642303,181.030121 
	C415.145264,180.988174 414.648254,180.946213 414.151215,180.904266 
	C413.740204,183.365753 413.329193,185.827255 412.912415,188.287781 
	C406.166718,187.408325 404.381805,188.846680 403.835480,196.463226 
M45.094437,134.431259 
	C41.598976,138.851044 42.081097,143.792084 46.468971,144.808884 
	C48.496147,145.278656 51.903183,144.551483 52.980965,143.101044 
	C54.202137,141.457642 54.373863,137.990204 53.456470,136.044495 
	C52.049397,133.060196 48.889259,132.495880 45.094437,134.431259 
M177.670532,182.542053 
	C175.438461,182.916367 171.296600,183.167709 171.263382,183.683624 
	C170.828430,190.437653 170.974304,197.229095 170.974304,204.011154 
	C171.600311,204.059357 172.226303,204.107559 172.852310,204.155777 
	C173.284729,201.520035 173.717163,198.884308 174.163376,196.164536 
	C178.617599,196.240112 181.995361,194.683624 182.711075,190.160721 
	C183.235382,186.847427 182.245834,183.855057 177.670532,182.542053 
M282.343445,188.404373 
	C277.819122,191.489410 277.595490,196.047623 279.344299,200.341125 
	C280.127289,202.263519 283.107452,203.791382 285.388794,204.425751 
	C286.888275,204.842712 288.920776,203.342651 290.714600,202.701065 
	C290.533997,202.298172 290.353424,201.895279 290.172821,201.492386 
	C283.188629,202.244064 282.839081,202.067978 282.065247,197.135986 
	C284.985168,196.961243 287.881042,196.787949 290.711975,196.618546 
	C291.267944,189.684128 289.411316,187.722382 282.343445,188.404373 
M202.826279,191.500458 
	C205.778076,190.772278 209.268173,188.822342 209.876785,194.533188 
	C205.761627,195.043762 200.686691,194.883804 201.497375,200.277924 
	C202.592575,207.564987 208.491180,202.715332 212.484482,203.990219 
	C212.484482,199.720169 212.893936,195.858963 212.292160,192.162384 
	C212.034988,190.582611 209.871475,188.577057 208.212448,188.140854 
	C205.943573,187.544327 202.739868,187.109665 202.826279,191.500458 
M381.604523,193.474670 
	C381.604523,196.918320 381.604523,200.361969 381.604523,204.485123 
	C385.593597,204.275513 388.837616,204.105072 392.081635,203.934616 
	C392.070068,203.223312 392.058533,202.512009 392.046967,201.800705 
	C389.748016,201.502060 387.449066,201.203415 384.101257,200.768509 
	C384.101257,194.429382 384.101257,188.264084 384.101257,182.098801 
	C383.269287,182.108932 382.437317,182.119080 381.605347,182.129227 
	C381.605347,185.593231 381.605347,189.057220 381.604523,193.474670 
M345.493286,187.864365 
	C343.912720,188.494278 342.332184,189.124191 339.666046,190.186752 
	C343.428864,191.899078 348.315155,187.910843 348.087921,194.377533 
	C344.413696,195.189926 339.223022,194.947922 340.201874,200.453156 
	C341.494019,207.720200 347.324524,202.384232 351.158447,204.050797 
	C351.158447,200.184830 351.134094,196.861557 351.165314,193.538803 
	C351.196381,190.233810 349.967621,188.050262 345.493286,187.864365 
M306.369781,203.359116 
	C306.524994,198.234894 307.099457,193.063354 304.949310,188.132385 
	C303.850800,190.576630 304.315094,193.086899 303.721191,195.315109 
	C303.118317,197.577026 301.471100,199.560593 300.281250,201.666046 
	C299.239166,199.707260 297.773285,197.851624 297.264923,195.762924 
	C296.663849,193.293472 296.889648,190.622787 296.757019,188.039322 
	C296.157013,188.068405 295.557037,188.097473 294.957062,188.126556 
	C294.097656,192.828598 293.568451,197.687881 295.851929,202.164139 
	C296.473755,203.383102 299.440277,203.554077 301.385132,203.900894 
	C302.815094,204.155884 304.333740,203.913681 306.369781,203.359116 
M257.360168,190.571106 
	C258.048645,191.708725 258.737122,192.846329 259.696228,194.431152 
	C254.988403,195.026978 250.377289,195.200104 251.213165,200.352585 
	C252.405396,207.701767 258.308716,202.389481 262.127716,204.091415 
	C262.127716,199.946869 262.507141,196.243820 261.962219,192.682175 
	C261.702911,190.987244 259.918121,188.627045 258.402985,188.246613 
	C256.436859,187.752975 254.050705,188.932434 251.845367,189.391708 
	C251.989685,189.990204 252.134018,190.588715 252.278336,191.187210 
	C253.675613,190.925156 255.072906,190.663086 257.360168,190.571106 
M392.480377,189.587341 
	C393.191620,191.485687 394.127411,193.335571 394.550415,195.296112 
	C394.966156,197.222961 394.555084,199.350479 395.094421,201.220428 
	C395.443054,202.428986 396.682129,203.853806 397.829468,204.220703 
	C398.894592,204.561295 400.367493,203.626831 402.560730,202.994202 
	C396.023132,199.587051 396.016327,193.329391 398.840302,191.139618 
	C397.565002,189.502411 396.046661,187.553238 394.528320,185.604080 
	C395.004120,185.047867 395.479919,184.491653 395.955719,183.935440 
	C394.829163,185.570877 393.702576,187.206299 392.480377,189.587341 
M269.477722,204.072235 
	C274.724396,204.943665 275.825928,204.316879 275.925537,201.192612 
	C273.776489,200.891296 270.321564,201.153549 269.951782,200.208542 
	C269.015930,197.817001 268.803558,194.642639 269.662933,192.276321 
	C270.045746,191.222260 273.704529,191.357925 277.139648,190.718475 
	C275.408905,189.612717 273.815247,187.810043 272.766449,188.085083 
	C270.466858,188.688141 267.345215,189.850754 266.528809,191.669159 
	C264.658691,195.834412 264.597626,200.402451 269.477722,204.072235 
M358.414490,197.261566 
	C358.414490,191.764267 358.414490,186.266983 358.414490,180.068497 
	C354.279938,183.075455 354.267059,201.880371 358.058777,204.706284 
	C358.192291,202.248215 358.302917,200.211121 358.414490,197.261566 
M330.693726,199.751617 
	C328.912140,191.804367 330.306458,190.097366 337.807556,191.402283 
	C337.329712,187.528030 334.541168,187.488632 332.015808,188.104477 
	C327.274017,189.260803 326.829254,193.236740 327.008759,197.212708 
	C327.180328,201.013275 328.620300,204.331100 332.969788,204.381348 
	C334.739441,204.401794 336.528748,202.718948 338.309082,201.811096 
	C338.004700,201.569275 337.700287,201.327454 337.395874,201.085632 
	C335.304382,200.888504 333.212860,200.691376 330.693726,199.751617 
M315.056183,201.161163 
	C314.583374,197.841461 314.110565,194.521759 313.687286,191.549759 
	C315.663330,190.661530 316.872070,190.118210 317.871552,189.668945 
	C315.843689,187.581543 314.171570,185.860321 312.288116,183.921570 
	C311.269226,185.653442 310.206696,187.459518 309.144165,189.265579 
	C309.471466,189.244888 309.798737,189.224197 310.126038,189.203491 
	C310.467590,192.447922 310.809021,195.692352 311.150787,198.936737 
	C311.466614,201.934982 312.068146,204.741241 316.031006,204.371231 
	C316.680786,204.310562 317.260132,203.495117 317.872009,203.028503 
	C317.176971,202.525970 316.481934,202.023438 315.056183,201.161163 
M368.928589,195.696854 
	C367.573730,194.433807 366.218872,193.170761 364.864014,191.907715 
	C366.609009,191.310349 368.354034,190.712997 371.619385,189.595169 
	C369.148163,188.843674 367.473267,187.765091 366.111786,188.072845 
	C364.608002,188.412766 362.356110,189.961166 362.288025,191.094788 
	C362.181122,192.875183 363.435516,194.870834 364.479919,196.546967 
	C365.407410,198.035507 366.833435,199.213425 368.039398,200.528442 
	C366.132263,200.724487 364.222656,200.901047 362.320862,201.139618 
	C362.063354,201.171921 361.844910,201.515381 361.395142,201.894485 
	C363.201019,205.388107 366.264404,205.192612 368.848053,203.694870 
	C372.056976,201.834656 371.906616,198.906387 368.928589,195.696854 
M216.659576,198.186127 
	C216.865738,200.237091 217.071884,202.288055 217.400146,205.554001 
	C222.168289,200.268158 215.471176,191.411026 225.455521,190.371140 
	C225.328049,189.810349 225.200577,189.249542 225.073105,188.688751 
	C222.482758,188.509689 219.892410,188.330627 217.220551,188.145920 
	C216.992691,188.943588 216.756882,189.403656 216.745728,189.869110 
	C216.686264,192.348648 216.683075,194.829559 216.659576,198.186127 
M89.238525,156.083878 
	C87.292450,156.173630 85.054893,155.731552 83.520561,156.572525 
	C82.727173,157.007385 82.584991,160.036316 83.259041,161.301727 
	C83.807487,162.331345 86.172699,163.181946 87.446152,162.884995 
	C90.914955,162.076126 90.992538,159.459442 89.238525,156.083878 
M323.890167,199.309357 
	C323.890442,189.415710 323.890442,189.415710 321.501007,188.269089 
	C321.501007,193.519730 321.501007,198.765289 321.501007,204.010849 
	C321.970032,204.092224 322.439087,204.173599 322.908112,204.254974 
	C323.235321,202.917542 323.562561,201.580109 323.890167,199.309357 
M102.412743,157.270767 
	C101.318932,155.917450 100.362541,154.386902 99.024101,153.349075 
	C98.729866,153.120911 96.425049,154.491211 96.214241,155.397217 
	C95.939812,156.576645 96.828697,159.162872 97.221741,159.163834 
	C98.877991,159.167831 100.536034,158.435379 102.412743,157.270767 
z"/>
<path fill="#5E6A88" opacity="1.000000" stroke="none" 
	d="
M285.326843,161.815430 
	C298.107422,148.883194 301.381531,134.226669 294.911194,117.594856 
	C293.727295,114.551659 292.058533,111.334221 289.708923,109.187271 
	C285.548859,105.386002 284.695129,100.984505 285.127472,95.808060 
	C285.359985,93.023956 285.168793,90.204475 285.168793,86.833939 
	C289.484558,86.833939 293.389496,86.833939 298.001892,86.833939 
	C298.001892,79.851349 298.145721,73.428551 297.938599,67.017082 
	C297.841431,64.009453 298.541656,61.637718 301.412781,60.587524 
	C306.964539,58.556816 312.580750,55.234524 318.215118,55.140583 
	C349.863647,54.612896 381.525604,54.886303 413.182953,54.900146 
	C413.659882,54.900356 414.136749,55.076794 414.985901,55.244511 
	C414.985901,92.585663 414.985901,129.932816 414.985901,167.556000 
	C406.685608,167.556000 398.612335,167.556000 390.092529,167.556000 
	C390.092529,138.755875 390.092529,110.177986 390.092529,81.300919 
	C381.264709,81.300919 372.879242,81.300919 364.050354,81.300919 
	C364.050354,110.040993 364.050354,138.621719 364.050354,167.514938 
	C355.210999,167.514938 346.808533,167.514938 337.834534,167.514938 
	C337.834534,138.846542 337.834534,110.290405 337.834534,81.163177 
	C330.871552,81.163177 324.431854,80.793144 318.059662,81.289558 
	C313.599030,81.637054 311.389679,85.547905 311.382874,91.486229 
	C311.355957,114.979446 311.371613,138.472717 311.371490,161.965958 
	C311.371490,163.743210 311.371490,165.520477 311.371490,167.561676 
	C302.484924,167.561676 294.225586,167.561676 285.230103,167.561676 
	C285.230103,165.689774 285.230103,163.941757 285.326843,161.815430 
z"/>
<path fill="#FFC102" opacity="1.000000" stroke="none" 
	d="
M187.000122,141.999695 
	C212.153885,142.071701 236.807663,142.188644 261.461456,142.190186 
	C269.582672,142.190704 274.125458,135.125656 270.543610,128.278763 
	C268.518524,124.407646 265.004303,123.315269 260.901855,123.324539 
	C247.406723,123.355064 233.911423,123.360008 220.416306,123.326149 
	C212.754959,123.306931 205.092896,123.246582 197.432938,123.106735 
	C189.318268,122.958611 181.657776,119.621849 175.680374,113.594833 
	C185.612183,97.757645 185.814941,81.573311 175.719269,65.443825 
	C181.689651,59.343746 188.982147,56.225201 196.914032,56.147377 
	C229.386230,55.828800 261.863342,56.014420 294.732056,56.014420 
	C294.732056,64.155586 294.732056,72.221947 294.732056,81.000343 
	C293.130524,81.000343 291.370209,81.003983 289.609894,80.999802 
	C259.623627,80.928474 229.637177,80.893883 199.651337,80.741737 
	C195.358154,80.719963 192.078217,82.135559 190.360046,86.081085 
	C188.695007,89.904564 188.998169,94.080093 192.262177,96.595200 
	C194.659668,98.442627 198.272400,99.491585 201.362396,99.534279 
	C220.185425,99.794350 239.014008,99.625648 257.840363,99.697990 
	C261.489685,99.712013 265.221924,99.746834 268.771515,100.475502 
	C286.485382,104.111862 296.359344,118.061295 295.068665,137.254257 
	C294.006989,153.042114 281.340576,166.333984 264.465454,166.708481 
	C231.851288,167.432251 199.209686,166.919800 166.227036,166.919800 
	C166.227036,158.758926 166.227036,150.696762 166.227036,141.999695 
	C172.958252,141.999695 179.729187,141.999695 187.000122,141.999695 
z"/>
<path fill="#5E6A89" opacity="1.000000" stroke="none" 
	d="
M56.103928,148.872742 
	C56.022610,121.892357 55.939957,94.911980 55.861504,67.931580 
	C55.850468,64.136757 55.859978,60.341873 55.859978,56.292751 
	C57.218460,56.172089 58.172474,56.013794 59.126572,56.013309 
	C86.278954,55.999607 113.432465,55.847698 140.583405,56.044857 
	C167.537262,56.240585 183.356293,82.883759 170.657990,106.580536 
	C165.210526,116.746208 156.353241,122.646591 144.931747,123.004684 
	C125.794876,123.604660 106.629578,123.298813 87.476234,123.372139 
	C85.528999,123.379593 83.581711,123.373146 81.132896,123.373146 
	C81.132896,137.788223 81.132896,151.532928 81.132896,165.549500 
	C72.561829,165.549500 64.496826,165.549500 55.940067,165.549500 
	C55.940067,161.042862 55.940067,156.763077 56.269478,152.278290 
	C58.276943,155.710541 61.287338,157.320435 64.431007,154.851715 
	C66.048706,153.581329 67.066765,149.858780 66.463120,147.798981 
	C65.197151,143.479095 59.797798,144.155685 56.103928,148.872742 
M149.565262,94.814919 
	C153.358856,85.966141 149.544586,79.902267 139.946686,79.857346 
	C121.297241,79.770058 102.647079,79.827980 83.997246,79.849960 
	C83.055832,79.851067 82.114677,80.080544 81.273468,80.190590 
	C81.273468,86.552536 81.273468,92.580795 81.273468,98.842377 
	C101.847908,98.842377 121.981529,98.953239 142.110336,98.692421 
	C144.445770,98.662163 146.754532,96.570930 149.565262,94.814919 
M71.389473,151.975586 
	C67.879501,155.725266 68.142754,159.966553 72.170830,160.872757 
	C73.778854,161.234528 76.231140,160.510941 77.393631,159.363815 
	C78.369286,158.401062 78.833031,155.281403 78.105164,154.572098 
	C76.598984,153.104340 74.149002,152.605103 71.389473,151.975586 
z"/>
<path fill="#FFC206" opacity="1.000000" stroke="none" 
	d="
M66.254929,26.842562 
	C62.272598,31.788404 58.300247,33.058907 54.044727,30.845936 
	C50.053459,28.770376 48.321457,25.280790 49.191719,20.944715 
	C50.061398,16.611551 53.003853,14.033607 57.479218,13.649234 
	C64.269173,13.066072 68.175682,18.737961 66.254929,26.842562 
z"/>
<path fill="#FFC208" opacity="1.000000" stroke="none" 
	d="
M36.792244,35.970577 
	C40.513786,32.643856 44.597980,31.949959 47.766781,35.215157 
	C49.616291,37.120934 50.750908,40.836491 50.408497,43.507217 
	C49.806923,48.199348 44.352703,50.498497 39.849522,48.784313 
	C35.029343,46.949463 33.738922,42.067852 36.792244,35.970577 
z"/>
<path fill="#697490" opacity="1.000000" stroke="none" 
	d="
M227.369049,194.197968 
	C227.369278,191.967148 227.369278,190.190750 227.369278,188.974884 
	C232.475571,187.282837 237.083527,190.215347 241.662247,188.127884 
	C242.567963,187.714966 244.038635,187.949402 245.017365,188.394333 
	C248.602036,190.023911 249.178177,201.264465 244.956696,204.728119 
	C244.956696,200.980118 245.233231,197.913849 244.837799,194.936829 
	C244.645630,193.490280 243.196411,192.210693 242.316284,190.855530 
	C241.222412,192.302643 239.471390,193.629333 239.179352,195.223358 
	C238.663010,198.041672 239.034698,201.022675 239.034698,203.935593 
	C238.598938,204.068497 238.163177,204.201416 237.727417,204.334335 
	C237.199722,203.581909 236.283997,202.862625 236.216370,202.070908 
	C236.004837,199.594559 236.374985,197.050003 235.994690,194.613861 
	C235.784592,193.267929 234.524445,192.085907 233.737671,190.829987 
	C232.561401,192.043777 230.595047,193.127319 230.369125,194.497772 
	C229.858948,197.592621 230.208817,200.829269 230.208817,204.008255 
	C229.411743,204.038345 228.614670,204.068451 227.817596,204.098541 
	C227.667999,200.949829 227.518417,197.801102 227.369049,194.197968 
z"/>
<path fill="#FFC207" opacity="1.000000" stroke="none" 
	d="
M24.917068,62.242847 
	C25.917112,57.954449 28.444099,55.282772 32.355312,56.091496 
	C34.827869,56.602749 37.783054,58.728657 38.907539,60.948177 
	C40.939453,64.958771 37.911579,69.509239 33.545914,70.312614 
	C28.754206,71.194397 25.600996,68.405113 24.917068,62.242847 
z"/>
<path fill="#FFC206" opacity="1.000000" stroke="none" 
	d="
M31.784748,113.083382 
	C25.632589,112.244926 23.061245,109.170074 23.950634,104.232033 
	C24.690020,100.126854 29.061073,97.147430 32.958748,98.996071 
	C35.238224,100.077209 37.603642,102.903030 38.125473,105.331772 
	C39.000652,109.405045 36.390854,112.165230 31.784748,113.083382 
z"/>
<path fill="#FFC207" opacity="1.000000" stroke="none" 
	d="
M34.128174,84.133881 
	C33.428043,89.677162 30.954737,92.234726 26.690660,91.975662 
	C22.654266,91.730415 20.231562,89.475792 19.813717,85.450340 
	C19.367311,81.149765 21.525234,78.467697 25.641344,77.472923 
	C29.638662,76.506851 32.555298,78.735901 34.128174,84.133881 
z"/>
<path fill="#FFC309" opacity="1.000000" stroke="none" 
	d="
M43.768684,128.734940 
	C40.576431,131.023956 37.314354,131.449707 34.953785,128.759201 
	C33.560699,127.171410 32.619827,124.102371 33.175560,122.194710 
	C33.729706,120.292488 36.251240,118.036201 38.196030,117.725761 
	C40.160324,117.412209 43.719379,118.792618 44.344337,120.336082 
	C45.274155,122.632454 44.239262,125.724350 43.768684,128.734940 
z"/>
<path fill="#6E7894" opacity="1.000000" stroke="none" 
	d="
M195.478149,203.406769 
	C195.187714,200.198151 195.388672,197.336533 194.987808,194.561874 
	C194.797073,193.241699 193.460159,192.087112 192.642441,190.857513 
	C191.451889,192.042358 189.454224,193.094528 189.233276,194.438736 
	C188.721970,197.549423 189.070755,200.801483 189.070755,204.771881 
	C185.327240,201.683075 185.148926,183.957596 188.558823,180.216293 
	C188.830429,183.370346 189.044006,185.850586 189.234192,188.059082 
	C191.576309,188.347183 194.723969,187.822403 195.913589,189.108612 
	C197.444824,190.764160 197.597153,193.842377 197.982422,196.362976 
	C198.280304,198.311859 198.193665,200.370499 197.907898,202.326279 
	C197.822891,202.908020 196.485870,203.306839 195.478149,203.406769 
z"/>
<path fill="#65718E" opacity="1.000000" stroke="none" 
	d="
M403.835754,196.032608 
	C404.381805,188.846680 406.166718,187.408325 412.915283,188.288269 
	C413.329193,185.827255 413.740204,183.365753 414.151215,180.904266 
	C414.648254,180.946213 415.145264,180.988174 415.642303,181.030121 
	C415.642303,188.484100 415.642303,195.938095 415.642303,203.398499 
	C404.247070,203.361542 404.247070,203.361542 403.835754,196.032608 
M412.937225,192.578247 
	C410.633453,190.177887 408.102661,189.480850 407.072357,193.298477 
	C406.457855,195.575516 407.306793,198.319153 407.856323,200.772766 
	C407.955383,201.215134 410.577148,201.684921 410.711517,201.433929 
	C411.862579,199.283813 412.744843,196.984146 413.611664,194.692932 
	C413.758301,194.305298 413.446442,193.744217 412.937225,192.578247 
z"/>
<path fill="#FFC30B" opacity="1.000000" stroke="none" 
	d="
M45.406563,134.236267 
	C48.889259,132.495880 52.049397,133.060196 53.456470,136.044495 
	C54.373863,137.990204 54.202137,141.457642 52.980965,143.101044 
	C51.903183,144.551483 48.496147,145.278656 46.468971,144.808884 
	C42.081097,143.792084 41.598976,138.851044 45.406563,134.236267 
z"/>
<path fill="#65718E" opacity="1.000000" stroke="none" 
	d="
M178.061798,182.648163 
	C182.245834,183.855057 183.235382,186.847427 182.711075,190.160721 
	C181.995361,194.683624 178.617599,196.240112 174.163376,196.164536 
	C173.717163,198.884308 173.284729,201.520035 172.852310,204.155777 
	C172.226303,204.107559 171.600311,204.059357 170.974304,204.011154 
	C170.974304,197.229095 170.828430,190.437653 171.263382,183.683624 
	C171.296600,183.167709 175.438461,182.916367 178.061798,182.648163 
M173.456589,192.441010 
	C175.164856,192.345200 177.415756,192.865891 178.425812,191.976822 
	C179.398285,191.120850 179.849152,188.298386 179.154297,187.259521 
	C178.223938,185.868576 175.969604,185.363174 173.325806,183.974243 
	C173.325806,187.458557 173.325806,189.565308 173.456589,192.441010 
z"/>
<path fill="#6B7692" opacity="1.000000" stroke="none" 
	d="
M282.715027,188.256180 
	C289.411316,187.722382 291.267944,189.684128 290.711975,196.618546 
	C287.881042,196.787949 284.985168,196.961243 282.065247,197.135986 
	C282.839081,202.067978 283.188629,202.244064 290.172821,201.492386 
	C290.353424,201.895279 290.533997,202.298172 290.714600,202.701065 
	C288.920776,203.342651 286.888275,204.842712 285.388794,204.425751 
	C283.107452,203.791382 280.127289,202.263519 279.344299,200.341125 
	C277.595490,196.047623 277.819122,191.489410 282.715027,188.256180 
M281.890045,193.573776 
	C283.859406,193.991486 285.828766,194.409195 287.798126,194.826904 
	C288.041077,194.321869 288.284027,193.816833 288.527008,193.311813 
	C287.569183,192.279984 286.599091,190.409576 285.656647,190.423416 
	C284.409760,190.441696 283.184509,191.934738 281.890045,193.573776 
z"/>
<path fill="#66718E" opacity="1.000000" stroke="none" 
	d="
M202.522263,191.276947 
	C202.739868,187.109665 205.943573,187.544327 208.212448,188.140854 
	C209.871475,188.577057 212.034988,190.582611 212.292160,192.162384 
	C212.893936,195.858963 212.484482,199.720169 212.484482,203.990219 
	C208.491180,202.715332 202.592575,207.564987 201.497375,200.277924 
	C200.686691,194.883804 205.761627,195.043762 209.876785,194.533188 
	C209.268173,188.822342 205.778076,190.772278 202.522263,191.276947 
M209.234238,200.510437 
	C209.223907,199.375610 209.213562,198.240784 209.203232,197.105942 
	C207.805405,197.379959 206.305679,197.440552 205.060730,198.034821 
	C204.574234,198.267044 204.660156,199.698425 204.485367,200.583633 
	C205.868774,200.728363 207.252167,200.873093 209.234238,200.510437 
z"/>
<path fill="#77819A" opacity="1.000000" stroke="none" 
	d="
M381.604919,192.997955 
	C381.605347,189.057220 381.605347,185.593231 381.605347,182.129227 
	C382.437317,182.119080 383.269287,182.108932 384.101257,182.098801 
	C384.101257,188.264084 384.101257,194.429382 384.101257,200.768509 
	C387.449066,201.203415 389.748016,201.502060 392.046967,201.800705 
	C392.058533,202.512009 392.070068,203.223312 392.081635,203.934616 
	C388.837616,204.105072 385.593597,204.275513 381.604523,204.485123 
	C381.604523,200.361969 381.604523,196.918320 381.604919,192.997955 
z"/>
<path fill="#65718E" opacity="1.000000" stroke="none" 
	d="
M345.918213,187.875504 
	C349.967621,188.050262 351.196381,190.233810 351.165314,193.538803 
	C351.134094,196.861557 351.158447,200.184830 351.158447,204.050797 
	C347.324524,202.384232 341.494019,207.720200 340.201874,200.453156 
	C339.223022,194.947922 344.413696,195.189926 348.087921,194.377533 
	C348.315155,187.910843 343.428864,191.899078 339.666046,190.186752 
	C342.332184,189.124191 343.912720,188.494278 345.918213,187.875504 
M346.810059,201.492081 
	C347.491547,200.255142 348.173035,199.018204 348.854523,197.781265 
	C348.452576,197.351120 348.050598,196.920959 347.648621,196.490799 
	C346.107147,197.402817 344.565704,198.314835 343.024231,199.226852 
	C344.058990,200.095840 345.093750,200.964844 346.810059,201.492081 
z"/>
<path fill="#616C8B" opacity="1.000000" stroke="none" 
	d="
M306.091309,203.626083 
	C304.333740,203.913681 302.815094,204.155884 301.385132,203.900894 
	C299.440277,203.554077 296.473755,203.383102 295.851929,202.164139 
	C293.568451,197.687881 294.097656,192.828598 294.957062,188.126556 
	C295.557037,188.097473 296.157013,188.068405 296.757019,188.039322 
	C296.889648,190.622787 296.663849,193.293472 297.264923,195.762924 
	C297.773285,197.851624 299.239166,199.707260 300.281250,201.666046 
	C301.471100,199.560593 303.118317,197.577026 303.721191,195.315109 
	C304.315094,193.086899 303.850800,190.576630 304.949310,188.132385 
	C307.099457,193.063354 306.524994,198.234894 306.091309,203.626083 
z"/>
<path fill="#65718E" opacity="1.000000" stroke="none" 
	d="
M256.915161,190.486053 
	C255.072906,190.663086 253.675613,190.925156 252.278336,191.187210 
	C252.134018,190.588715 251.989685,189.990204 251.845367,189.391708 
	C254.050705,188.932434 256.436859,187.752975 258.402985,188.246613 
	C259.918121,188.627045 261.702911,190.987244 261.962219,192.682175 
	C262.507141,196.243820 262.127716,199.946869 262.127716,204.091415 
	C258.308716,202.389481 252.405396,207.701767 251.213165,200.352585 
	C250.377289,195.200104 254.988403,195.026978 259.696228,194.431152 
	C258.737122,192.846329 258.048645,191.708725 256.915161,190.486053 
M257.810059,201.492081 
	C258.491547,200.255142 259.173035,199.018219 259.854523,197.781281 
	C259.452545,197.351120 259.050568,196.920959 258.648590,196.490814 
	C257.107147,197.402832 255.565689,198.314850 254.024246,199.226852 
	C255.058975,200.095856 256.093719,200.964844 257.810059,201.492081 
z"/>
<path fill="#758099" opacity="1.000000" stroke="none" 
	d="
M392.528198,189.214539 
	C393.702576,187.206299 394.829163,185.570877 395.955719,183.935440 
	C395.479919,184.491653 395.004120,185.047867 394.528320,185.604080 
	C396.046661,187.553238 397.565002,189.502411 398.840302,191.139618 
	C396.016327,193.329391 396.023132,199.587051 402.560730,202.994202 
	C400.367493,203.626831 398.894592,204.561295 397.829468,204.220703 
	C396.682129,203.853806 395.443054,202.428986 395.094421,201.220428 
	C394.555084,199.350479 394.966156,197.222961 394.550415,195.296112 
	C394.127411,193.335571 393.191620,191.485687 392.528198,189.214539 
z"/>
<path fill="#F7BD09" opacity="1.000000" stroke="none" 
	d="
M56.082596,149.127777 
	C59.797798,144.155685 65.197151,143.479095 66.463120,147.798981 
	C67.066765,149.858780 66.048706,153.581329 64.431007,154.851715 
	C61.287338,157.320435 58.276943,155.710541 56.349186,151.786270 
	C56.086739,150.793762 56.074001,150.088303 56.082596,149.127777 
z"/>
<path fill="#737D97" opacity="1.000000" stroke="none" 
	d="
M269.130493,203.935226 
	C264.597626,200.402451 264.658691,195.834412 266.528809,191.669159 
	C267.345215,189.850754 270.466858,188.688141 272.766449,188.085083 
	C273.815247,187.810043 275.408905,189.612717 277.139648,190.718475 
	C273.704529,191.357925 270.045746,191.222260 269.662933,192.276321 
	C268.803558,194.642639 269.015930,197.817001 269.951782,200.208542 
	C270.321564,201.153549 273.776489,200.891296 275.925537,201.192612 
	C275.825928,204.316879 274.724396,204.943665 269.130493,203.935226 
z"/>
<path fill="#79839C" opacity="1.000000" stroke="none" 
	d="
M358.414032,197.717789 
	C358.302917,200.211121 358.192291,202.248215 358.058777,204.706284 
	C354.267059,201.880371 354.279938,183.075455 358.414490,180.068497 
	C358.414490,186.266983 358.414490,191.764267 358.414032,197.717789 
z"/>
<path fill="#6D7793" opacity="1.000000" stroke="none" 
	d="
M330.907532,200.122925 
	C333.212860,200.691376 335.304382,200.888504 337.395874,201.085632 
	C337.700287,201.327454 338.004700,201.569275 338.309082,201.811096 
	C336.528748,202.718948 334.739441,204.401794 332.969788,204.381348 
	C328.620300,204.331100 327.180328,201.013275 327.008759,197.212708 
	C326.829254,193.236740 327.274017,189.260803 332.015808,188.104477 
	C334.541168,187.488632 337.329712,187.528030 337.807556,191.402283 
	C330.306458,190.097366 328.912140,191.804367 330.907532,200.122925 
z"/>
<path fill="#66718E" opacity="1.000000" stroke="none" 
	d="
M315.421509,201.341034 
	C316.481934,202.023438 317.176971,202.525970 317.872009,203.028503 
	C317.260132,203.495117 316.680786,204.310562 316.031006,204.371231 
	C312.068146,204.741241 311.466614,201.934982 311.150787,198.936737 
	C310.809021,195.692352 310.467590,192.447922 310.126038,189.203491 
	C309.798737,189.224197 309.471466,189.244888 309.144165,189.265579 
	C310.206696,187.459518 311.269226,185.653442 312.288116,183.921570 
	C314.171570,185.860321 315.843689,187.581543 317.871552,189.668945 
	C316.872070,190.118210 315.663330,190.661530 313.687286,191.549759 
	C314.110565,194.521759 314.583374,197.841461 315.421509,201.341034 
z"/>
<path fill="#697490" opacity="1.000000" stroke="none" 
	d="
M369.258606,195.908905 
	C371.906616,198.906387 372.056976,201.834656 368.848053,203.694870 
	C366.264404,205.192612 363.201019,205.388107 361.395142,201.894485 
	C361.844910,201.515381 362.063354,201.171921 362.320862,201.139618 
	C364.222656,200.901047 366.132263,200.724487 368.039398,200.528442 
	C366.833435,199.213425 365.407410,198.035507 364.479919,196.546967 
	C363.435516,194.870834 362.181122,192.875183 362.288025,191.094788 
	C362.356110,189.961166 364.608002,188.412766 366.111786,188.072845 
	C367.473267,187.765091 369.148163,188.843674 371.619385,189.595169 
	C368.354034,190.712997 366.609009,191.310349 364.864014,191.907715 
	C366.218872,193.170761 367.573730,194.433807 369.258606,195.908905 
z"/>
<path fill="#6E7994" opacity="1.000000" stroke="none" 
	d="
M216.659988,197.748047 
	C216.683075,194.829559 216.686264,192.348648 216.745728,189.869110 
	C216.756882,189.403656 216.992691,188.943588 217.220551,188.145920 
	C219.892410,188.330627 222.482758,188.509689 225.073105,188.688751 
	C225.200577,189.249542 225.328049,189.810349 225.455521,190.371140 
	C215.471176,191.411026 222.168289,200.268158 217.400146,205.554001 
	C217.071884,202.288055 216.865738,200.237091 216.659988,197.748047 
z"/>
<path fill="#FFC40D" opacity="1.000000" stroke="none" 
	d="
M89.502899,156.348541 
	C90.992538,159.459442 90.914955,162.076126 87.446152,162.884995 
	C86.172699,163.181946 83.807487,162.331345 83.259041,161.301727 
	C82.584991,160.036316 82.727173,157.007385 83.520561,156.572525 
	C85.054893,155.731552 87.292450,156.173630 89.502899,156.348541 
z"/>
<path fill="#6D7793" opacity="1.000000" stroke="none" 
	d="
M323.889954,199.776016 
	C323.562561,201.580109 323.235321,202.917542 322.908112,204.254974 
	C322.439087,204.173599 321.970032,204.092224 321.501007,204.010849 
	C321.501007,198.765289 321.501007,193.519730 321.501007,188.269089 
	C323.890442,189.415710 323.890442,189.415710 323.889954,199.776016 
z"/>
<path fill="#FFC515" opacity="1.000000" stroke="none" 
	d="
M102.303085,157.621567 
	C100.536034,158.435379 98.877991,159.167831 97.221741,159.163834 
	C96.828697,159.162872 95.939812,156.576645 96.214241,155.397217 
	C96.425049,154.491211 98.729866,153.120911 99.024101,153.349075 
	C100.362541,154.386902 101.318932,155.917450 102.303085,157.621567 
z"/>
<path fill="#FDFDFD" opacity="1.000000" stroke="none" 
	d="
M149.320465,95.125061 
	C146.754532,96.570930 144.445770,98.662163 142.110336,98.692421 
	C121.981529,98.953239 101.847908,98.842377 81.273468,98.842377 
	C81.273468,92.580795 81.273468,86.552536 81.273468,80.190590 
	C82.114677,80.080544 83.055832,79.851067 83.997246,79.849960 
	C102.647079,79.827980 121.297241,79.770058 139.946686,79.857346 
	C149.544586,79.902267 153.358856,85.966141 149.320465,95.125061 
z"/>
<path fill="#F7BD09" opacity="1.000000" stroke="none" 
	d="
M71.738312,151.841583 
	C74.149002,152.605103 76.598984,153.104340 78.105164,154.572098 
	C78.833031,155.281403 78.369286,158.401062 77.393631,159.363815 
	C76.231140,160.510941 73.778854,161.234528 72.170830,160.872757 
	C68.142754,159.966553 67.879501,155.725266 71.738312,151.841583 
z"/>
<path fill="#F1F2F5" opacity="1.000000" stroke="none" 
	d="
M413.141815,192.920761 
	C413.446442,193.744217 413.758301,194.305298 413.611664,194.692932 
	C412.744843,196.984146 411.862579,199.283813 410.711517,201.433929 
	C410.577148,201.684921 407.955383,201.215134 407.856323,200.772766 
	C407.306793,198.319153 406.457855,195.575516 407.072357,193.298477 
	C408.102661,189.480850 410.633453,190.177887 413.141815,192.920761 
z"/>
<path fill="#EAECEF" opacity="1.000000" stroke="none" 
	d="
M173.391205,192.056549 
	C173.325806,189.565308 173.325806,187.458557 173.325806,183.974243 
	C175.969604,185.363174 178.223938,185.868576 179.154297,187.259521 
	C179.849152,188.298386 179.398285,191.120850 178.425812,191.976822 
	C177.415756,192.865891 175.164856,192.345200 173.391205,192.056549 
z"/>
<path fill="#E4E6EB" opacity="1.000000" stroke="none" 
	d="
M281.920013,193.183853 
	C283.184509,191.934738 284.409760,190.441696 285.656647,190.423416 
	C286.599091,190.409576 287.569183,192.279984 288.527008,193.311813 
	C288.284027,193.816833 288.041077,194.321869 287.798126,194.826904 
	C285.828766,194.409195 283.859406,193.991486 281.920013,193.183853 
z"/>
<path fill="#F1F2F5" opacity="1.000000" stroke="none" 
	d="
M208.934906,200.764130 
	C207.252167,200.873093 205.868774,200.728363 204.485367,200.583633 
	C204.660156,199.698425 204.574234,198.267044 205.060730,198.034821 
	C206.305679,197.440552 207.805405,197.379959 209.203217,197.105957 
	C209.213562,198.240784 209.223907,199.375610 208.934906,200.764130 
z"/>
<path fill="#EDEEF2" opacity="1.000000" stroke="none" 
	d="
M346.469269,201.662964 
	C345.093750,200.964844 344.058990,200.095840 343.024231,199.226852 
	C344.565704,198.314835 346.107147,197.402817 347.648621,196.490799 
	C348.050598,196.920959 348.452576,197.351120 348.854523,197.781265 
	C348.173035,199.018204 347.491547,200.255142 346.469269,201.662964 
z"/>
<path fill="#EDEEF2" opacity="1.000000" stroke="none" 
	d="
M257.469238,201.662964 
	C256.093719,200.964844 255.058975,200.095856 254.024231,199.226868 
	C255.565689,198.314850 257.107147,197.402832 258.648590,196.490814 
	C259.050568,196.920959 259.452545,197.351120 259.854523,197.781281 
	C259.173035,199.018219 258.491547,200.255142 257.469238,201.662964 
z"/>
</svg>